# File created by Blade
# Date/Time:  Fri Jan 16 17:25:32 2015
#---------------------------------------------------------
:version 1.10
:name HOM
:units
  mass 1.0
  length 1.000000
  angle deg
:documentation
     Acclaim Skeleton File
:root
   axis xyz
   order TX TY TZ RX RY RZ
   position 0.000000 0.000000 0.000000
   orientation 0 0 0
:bonedata
   begin
      id 1
      name Spine_dum
      direction 0.000000 1.000000 0.000000
      length 7.170412
      axis 0.0 0.0 0.0 xyz
   end
   begin
      id 2
      name LeftUpLeg_dum
      direction 1.000000 0.000000 0.000000
      length 4.318350
      axis 0.0 0.0 0.0 xyz
   end
   begin
      id 3
      name RightUpLeg_dum
      direction -1.000000 0.000000 0.000000
      length 4.318350
      axis 0.0 0.0 0.0 xyz
   end
   begin
      id 4
      name Spine
      direction 0.000000 1.000000 0.000000
      length 0.000000
      axis 0.0 0.0 0.0 xyz
      dof rx ry rz
   end
   begin
      id 5
      name Spine_dum1
      direction 0.000000 1.000000 0.000000
      length 14.276153
      axis 0.0 0.0 0.0 xyz
   end
   begin
      id 6
      name Spine_dum2
      direction 0.000000 1.000000 0.000000
      length 10.718243
      axis 0.0 0.0 0.0 xyz
   end
   begin
      id 7
      name Spine_dum3
      direction 0.000000 1.000000 0.000000
      length 10.718243
      axis 0.0 0.0 0.0 xyz
   end
   begin
      id 8
      name Head
      direction 0.000000 1.000000 0.000000
      length 4.527550
      axis 0.0 0.0 0.0 xyz
      dof rx ry rz
   end
   begin
      id 9
      name LeftShoulder
      direction 1.000000 0.000000 0.000000
      length 7.058872
      axis 0.0 0.0 -90.0 xyz
      dof rx ry rz
   end
   begin
      id 10
      name LeftArm
      direction 1.000000 0.000000 0.000000
      length 10.955525
      axis 0.0 0.0 -90.0 xyz
      dof rx ry rz
   end
   begin
      id 11
      name LeftForeArm
      direction 1.000000 0.000000 0.000000
      length 8.193716
      axis 0.0 0.0 -90.0 xyz
      dof ry rz rx
   end
   begin
      id 12
      name LeftHand
      direction 0.000000 0.000000 0.000000
      length 0.000000
      axis 0.0 0.0 -90.0 xyz
      dof rx ry rz
   end
   begin
      id 13
      name LeftHand_dum1
      direction 0.000000 0.000000 0.000000
      length 0.000000
      axis 0.0 0.0 -90.0 xyz
   end
   begin
      id 14
      name LeftHand_dum2
      direction 1.000000 0.000000 0.000000
      length 3.937000
      axis 0.0 0.0 -90.0 xyz
   end
   begin
      id 15
      name LeftHandThumb1
      direction 0.000000 0.000000 1.000000
      length 3.937000
      axis 0.0 0.0 -90.0 xyz
      dof rx rz ry
   end
   begin
      id 16
      name RightShoulder
      direction -1.000000 0.000000 0.000000
      length 7.058872
      axis 0.0 0.0 90.0 xyz
      dof rx ry rz
   end
   begin
      id 17
      name RightArm
      direction -1.000000 0.000000 0.000000
      length 10.955525
      axis 0.0 0.0 90.0 xyz
      dof rx ry rz
   end
   begin
      id 18
      name RightForeArm
      direction -1.000000 0.000000 0.000000
      length 8.193716
      axis 0.0 0.0 90.0 xyz
      dof ry rz rx
   end
   begin
      id 19
      name RightHand
      direction 0.000000 0.000000 0.000000
      length 0.000000
      axis 0.0 0.0 90.0 xyz
      dof rx ry rz
   end
   begin
      id 20
      name RightHand_dum1
      direction 0.000000 0.000000 0.000000
      length 0.000000
      axis 0.0 0.0 90.0 xyz
   end
   begin
      id 21
      name RightHand_dum2
      direction -1.000000 0.000000 0.000000
      length 3.937000
      axis 0.0 0.0 90.0 xyz
   end
   begin
      id 22
      name RightHandThumb1
      direction 0.000000 0.000000 1.000000
      length 3.937000
      axis 0.0 0.0 90.0 xyz
      dof rx rz ry
   end
   begin
      id 23
      name LeftUpLeg
      direction 0.000000 -1.000000 0.000000
      length 17.323638
      axis 0.0 0.0 0.0 xyz
      dof rx ry rz
   end
   begin
      id 24
      name LeftLeg
      direction 0.000000 -1.000000 0.000000
      length 16.270368
      axis 0.0 0.0 0.0 xyz
      dof rx ry rz
   end
   begin
      id 25
      name LeftFoot
      direction 0.000000 -0.258819 0.965926
      length 4.922846
      axis 15.0 0.0 0.0 xyz
      dof rx ry rz
   end
   begin
      id 26
      name LeftToeBase
      direction 0.000000 0.000000 1.000000
      length 2.952750
      axis 0.0 0.0 0.0 xyz
      dof rx ry rz
   end
   begin
      id 27
      name RightUpLeg
      direction 0.000000 -1.000000 0.000000
      length 17.323638
      axis 0.0 0.0 0.0 xyz
      dof rx ry rz
   end
   begin
      id 28
      name RightLeg
      direction 0.000000 -1.000000 0.000000
      length 16.270368
      axis 0.0 0.0 0.0 xyz
      dof rx ry rz
   end
   begin
      id 29
      name RightFoot
      direction 0.000000 -0.258819 0.965926
      length 4.922846
      axis 15.0 0.0 0.0 xyz
      dof rx ry rz
   end
   begin
      id 30
      name RightToeBase
      direction 0.000000 0.000000 1.000000
      length 2.952750
      axis 0.0 0.0 0.0 xyz
      dof rx ry rz
   end
:hierarchy
   begin
      root Spine_dum LeftUpLeg_dum RightUpLeg_dum
      Spine_dum Spine
      LeftUpLeg_dum LeftUpLeg
      RightUpLeg_dum RightUpLeg
      Spine Spine_dum1 Spine_dum2 Spine_dum3
      Spine_dum1 Head
      Spine_dum2 LeftShoulder
      Spine_dum3 RightShoulder
      LeftShoulder LeftArm
      LeftArm LeftForeArm
      LeftForeArm LeftHand
      LeftHand LeftHand_dum1 LeftHand_dum2
      LeftHand_dum1 LeftHandThumb1
      RightShoulder RightArm
      RightArm RightForeArm
      RightForeArm RightHand
      RightHand RightHand_dum1 RightHand_dum2
      RightHand_dum1 RightHandThumb1
      LeftUpLeg LeftLeg
      LeftLeg LeftFoot
      LeftFoot LeftToeBase
      RightUpLeg RightLeg
      RightLeg RightFoot
      RightFoot RightToeBase
   end

# File created by Blade
# Date/Time:  Fri Jan 16 17:25:22 2015
# Frame Rate: 120.000 fps
#------------------------------------------------------
:FULLY-SPECIFIED
:DEGREES
334
root -5.779075 35.250596 -10.745679 -3.122465 -8.944557 -6.114505
Spine 4.297113 1.536209 9.204832
Head 2.981928 7.509336 -3.338672
LeftShoulder -20.618072 15.627893 -15.852903
LeftArm 24.444491 15.437945 -69.096385
LeftForeArm 10.736470 -0.000000 14.685707
LeftHand 1.013946 -0.000000 -7.554497
LeftHandThumb1 -26.253704 0.000000 33.147579
RightShoulder -3.282304 -2.955352 3.643115
RightArm 11.170786 -36.592960 64.873904
RightForeArm -20.576417 -0.000000 25.455894
RightHand 1.139298 -0.000000 5.637502
RightHandThumb1 -24.326973 -0.000000 -32.862282
LeftUpLeg 12.774728 17.295496 8.556688
LeftLeg -8.849590 -0.000000 0.000000
LeftFoot -14.814312 28.498470 -7.933389
LeftToeBase 22.863200 -0.000000 -0.000000
RightUpLeg 8.228206 -4.746067 2.905563
RightLeg -4.114308 -0.000000 0.000000
RightFoot -3.473245 -22.637250 5.283978
RightToeBase 13.736799 -0.000000 -0.000000
335
root -5.779906 35.250937 -10.742072 -3.146460 -8.952360 -6.116041
Spine 4.319031 1.591776 9.209934
Head 3.027383 7.532155 -3.373882
LeftShoulder -20.603678 15.616708 -15.858730
LeftArm 24.482174 15.697557 -69.154700
LeftForeArm 10.660723 -0.000000 14.716464
LeftHand 1.050456 0.000000 -7.543048
LeftHandThumb1 -26.253704 0.000000 33.147579
RightShoulder -3.285134 -2.993668 3.654694
RightArm 11.211944 -36.674923 64.852501
RightForeArm -20.608826 -0.000000 25.458693
RightHand 1.114512 -0.000000 5.656745
RightHandThumb1 -24.326973 -0.000000 -32.862282
LeftUpLeg 12.804133 17.147905 8.545381
LeftLeg -8.844592 -0.000000 0.000000
LeftFoot -14.846422 28.625867 -7.972798
LeftToeBase 22.865664 -0.000000 -0.000000
RightUpLeg 8.263635 -4.744361 2.908569
RightLeg -4.129370 -0.000000 0.000000
RightFoot -3.438958 -22.658627 5.224911
RightToeBase 13.717135 -0.000000 -0.000000
336
root -5.780184 35.251036 -10.737975 -3.173160 -8.961370 -6.115933
Spine 4.346703 1.649523 9.214673
Head 3.056031 7.559606 -3.412524
LeftShoulder -20.599909 15.592553 -15.868592
LeftArm 24.526336 15.937423 -69.200506
LeftForeArm 10.733906 -0.000000 14.747007
LeftHand 0.996274 -0.000000 -7.605363
LeftHandThumb1 -26.253704 0.000000 33.147579
RightShoulder -3.294612 -3.022303 3.661316
RightArm 11.253680 -36.745042 64.836102
RightForeArm -20.673767 -0.000000 25.443501
RightHand 1.194134 -0.000000 5.759307
RightHandThumb1 -24.326973 -0.000000 -32.862282
LeftUpLeg 12.837060 17.019170 8.535765
LeftLeg -8.835476 -0.000000 0.000000
LeftFoot -14.886550 28.734802 -8.032954
LeftToeBase 22.871437 -0.000000 -0.000000
RightUpLeg 8.303567 -4.738200 2.905797
RightLeg -4.144039 -0.000000 0.000000
RightFoot -3.439784 -22.651513 5.240283
RightToeBase 13.724878 -0.000000 -0.000000
337
root -5.784013 35.250430 -10.730221 -3.232369 -8.986999 -6.131487
Spine 4.412045 1.717822 9.232206
Head 3.079795 7.590701 -3.441221
LeftShoulder -20.590373 15.569965 -15.859604
LeftArm 24.555529 16.172813 -69.267087
LeftForeArm 10.939565 -0.000000 14.815684
LeftHand 1.005978 -0.000000 -7.530144
LeftHandThumb1 -26.253704 0.000000 33.147579
RightShoulder -3.300370 -3.091934 3.687074
RightArm 11.357395 -36.795128 64.771521
RightForeArm -20.323360 -0.000000 25.368175
RightHand 1.812652 -0.000000 7.050953
RightHandThumb1 -24.326973 -0.000000 -32.862282
LeftUpLeg 12.931290 16.834634 8.552242
LeftLeg -8.856809 -0.000000 0.000000
LeftFoot -14.928679 28.903623 -8.094148
LeftToeBase 22.843471 -0.000000 -0.000000
RightUpLeg 8.393570 -4.691176 2.923716
RightLeg -4.178170 -0.000000 0.000000
RightFoot -3.432385 -22.682946 5.247382
RightToeBase 13.723747 -0.000000 -0.000000
